# xmcd
#
# Track frame offsets: 
#        150
#        20773
#        40897
#        55965
#        80366
#        93321
#        120731
#        143539
#        156385
#        182329
#        197169
#        215303
#        238408
#        256615
#        271380
#        286462
#        309022
#        325797
#
# Disc length: 4547 seconds
#
# Revision: 7
# Processed by: cddbd v1.5.2PL0 Copyright (c) Steve Scherf et al.
# Submitted via: ExactAudioCopy v1.0b3
#
DISCID=f711c112
DTITLE=Various Artist - Kuscheljazz Disc 2
DYEAR=2003
DGENRE=Jazz
TTITLE0=Jazzamor - Way back
TTITLE1=The Style Council - The Paris match
TTITLE2=Patricia Kaas - Un homme et une femme
TTITLE3=Stan Getz - Misty
TTITLE4=Andy Williams - The look of love
TTITLE5=Keiko Lee - Saving all my love for you
TTITLE6=Till Brönner - Just the way you are
TTITLE7=James Taylor - It’s only a paper moon
TTITLE8=Carmen Cuesta-Loeb - Dreams
TTITLE9=Silje Nergaard - Blame it on the sun
TTITLE10=Billy Joel - In a sentimental mood
TTITLE11=Chris Botti - Lisa
TTITLE12=Joy Denalane - I cover the waterfront
TTITLE13=Sarah Vaughan - Summertime
TTITLE14=Tony Bennett - k.d. lang - What a wonderful world
TTITLE15=Ann Burton - I can’t give you anything but love (Baby)
TTITLE16=Malia - Erik Truffaz - Yellow daffodils
TTITLE17=Simply Red - Ev'ry time we say goodbye
EXTD=YEAR: 2003
EXTT0=
EXTT1=
EXTT2=
EXTT3=
EXTT4=
EXTT5=
EXTT6=
EXTT7=
EXTT8=
EXTT9=
EXTT10=
EXTT11=
EXTT12=
EXTT13=
EXTT14=
EXTT15=
EXTT16=
EXTT17=
PLAYORDER=
